<?xml version="1.0" encoding="UTF-8" standalone="no"?>
<!-- Created with Inkscape (http://www.inkscape.org/) -->

<svg
   xmlns:dc="http://purl.org/dc/elements/1.1/"
   xmlns:cc="http://creativecommons.org/ns#"
   xmlns:rdf="http://www.w3.org/1999/02/22-rdf-syntax-ns#"
   xmlns:svg="http://www.w3.org/2000/svg"
   xmlns="http://www.w3.org/2000/svg"
   xmlns:sodipodi="http://sodipodi.sourceforge.net/DTD/sodipodi-0.dtd"
   xmlns:inkscape="http://www.inkscape.org/namespaces/inkscape"
   width="64px"
   height="64px"
   id="svg2985"
   version="1.1"
   inkscape:version="0.48.0 r9654"
   sodipodi:docname="Bengali Digit Five.svg">
  <defs
     id="defs2987" />
  <sodipodi:namedview
     id="base"
     pagecolor="#ffffff"
     bordercolor="#666666"
     borderopacity="1.0"
     inkscape:pageopacity="0.0"
     inkscape:pageshadow="2"
     inkscape:zoom="5.5"
     inkscape:cx="39.627645"
     inkscape:cy="32"
     inkscape:current-layer="layer1"
     showgrid="true"
     inkscape:document-units="px"
     inkscape:grid-bbox="true"
     inkscape:window-width="1280"
     inkscape:window-height="947"
     inkscape:window-x="0"
     inkscape:window-y="24"
     inkscape:window-maximized="1" />
  <metadata
     id="metadata2990">
    <rdf:RDF>
      <cc:Work
         rdf:about="">
        <dc:format>image/svg+xml</dc:format>
        <dc:type
           rdf:resource="http://purl.org/dc/dcmitype/StillImage" />
        <dc:title></dc:title>
      </cc:Work>
    </rdf:RDF>
  </metadata>
  <g
     id="layer1"
     inkscape:label="Layer 1"
     inkscape:groupmode="layer">
    <g
       transform="translate(8.3636364,-7.6363636)"
       style="font-size:40px;font-style:normal;font-weight:normal;line-height:125%;letter-spacing:0px;word-spacing:0px;fill:#000000;fill-opacity:1;stroke:none;font-family:Sans"
       id="flowRoot3755">
      <path
         d="m 42.322917,46.506523 c -0.338582,2.454441 -0.945135,4.669066 -1.819662,6.64388 -0.874603,1.974835 -1.988968,3.653436 -3.343099,5.035807 -1.325988,1.354171 -2.86353,2.398007 -4.61263,3.131511 -1.720949,0.733508 -3.597032,1.100261 -5.628255,1.10026 -2.595508,-0.141058 -5.007615,-0.860458 -7.236328,-2.158203 -2.200536,-1.32595 -4.203572,-3.004551 -6.009115,-5.035807 C 11.896475,53.164519 10.316615,50.851154 8.9342448,48.283867 7.5518611,45.71661 6.3810724,43.092915 5.421875,40.412773 4.4626715,37.732677 3.7150594,35.123088 3.1790365,32.583997 2.6712237,30.016756 2.375,27.717496 2.2903646,25.68621 l 2.4967448,1.142578 c 0.3667507,1.890226 0.8040332,3.808627 1.3118489,5.755209 0.5360201,1.946643 1.184891,3.850938 1.9466146,5.71289 0.7899241,1.862003 1.692701,3.653451 2.7083331,5.374349 1.043828,1.692727 2.256934,3.258481 3.639323,4.697266 1.382365,1.410604 2.948119,2.666028 4.697266,3.766276 1.749113,1.072059 3.723938,1.904306 5.924479,2.496745 l 1.777344,0 c 1.918376,9e-6 3.625189,-0.338533 5.120442,-1.015625 1.523407,-0.677073 2.792937,-1.565744 3.808594,-2.666016 1.043803,-1.100247 1.833732,-2.341565 2.369792,-3.723958 0.5642,-1.410573 0.846317,-2.835267 0.846354,-4.274089 -3.7e-5,-1.100238 -0.155201,-2.200498 -0.465495,-3.300781 -0.310365,-1.100235 -0.818177,-2.144071 -1.523437,-3.13151 -0.253941,0.677109 -0.663012,1.368298 -1.227214,2.073567 -0.536057,0.70532 -1.184928,1.368297 -1.946614,1.988933 -0.76175,0.59247 -1.593997,1.128494 -2.496745,1.608073 -0.902806,0.479621 -1.819689,0.846374 -2.750651,1.10026 l -2.835287,0.253906 C 24.507139,43.516091 23.392774,43.304503 22.348958,42.909518 21.333314,42.486362 20.430537,41.936232 19.640625,41.259127 18.87889,40.553855 18.230019,39.735713 17.69401,38.8047 17.186183,37.845524 16.847642,36.801688 16.678385,35.673189 L 15.027995,24.03582 c -0.536037,3.9e-5 -1.043849,-0.112808 -1.523438,-0.338542 -0.479611,-0.225654 -0.902788,-0.521878 -1.269531,-0.888672 -0.366763,-0.394924 -0.662987,-0.832207 -0.888672,-1.311849 -0.197491,-0.50777 -0.296232,-1.043794 -0.296224,-1.608073 -8e-6,-0.507768 0.112839,-1.01558 0.338542,-1.523437 0.225685,-0.507767 0.550121,-0.94505 0.973307,-1.311849 0.423167,-0.394919 0.930979,-0.705248 1.523438,-0.93099 0.620647,-0.253858 1.325942,-0.380811 2.115885,-0.380859 0.84634,4.8e-5 1.593952,0.169318 2.242839,0.507812 0.648855,0.338589 1.184878,0.804083 1.608073,1.396485 0.451371,0.592493 0.789912,1.311893 1.015625,2.158203 0.253887,0.818185 0.38084,1.706856 0.380859,2.666015 l 0,13.710938 c -1.9e-5,0.648898 0.211569,1.213134 0.634766,1.692708 0.451368,0.451414 1.170769,0.719426 2.158203,0.804037 1.213084,-0.282093 2.341556,-0.818117 3.385416,-1.608073 1.043811,-0.818115 1.988906,-1.749104 2.835287,-2.792969 0.874537,-1.072018 1.650361,-2.214595 2.327474,-3.427734 0.677052,-1.213074 1.241288,-2.383863 1.692708,-3.51237 2.651875,1.946649 4.683123,4.330544 6.09375,7.151693 1.410551,2.792995 2.115845,5.839867 2.115885,9.140625 l -0.16927,2.877604 0,0"
         style="font-size:65px;font-variant:normal;font-stretch:normal;font-family:AdorshoLipi;-inkscape-font-specification:AdorshoLipi"
         id="path3764" />
    </g>
  </g>
</svg>
