<?xml version="1.0" encoding="UTF-8" standalone="no"?>
<!-- Created with Inkscape (http://www.inkscape.org/) -->

<svg
   xmlns:dc="http://purl.org/dc/elements/1.1/"
   xmlns:cc="http://creativecommons.org/ns#"
   xmlns:rdf="http://www.w3.org/1999/02/22-rdf-syntax-ns#"
   xmlns:svg="http://www.w3.org/2000/svg"
   xmlns="http://www.w3.org/2000/svg"
   xmlns:sodipodi="http://sodipodi.sourceforge.net/DTD/sodipodi-0.dtd"
   xmlns:inkscape="http://www.inkscape.org/namespaces/inkscape"
   width="64px"
   height="64px"
   id="svg2985"
   version="1.1"
   inkscape:version="0.48.0 r9654"
   sodipodi:docname="Bengali Digit Six.svg">
  <defs
     id="defs2987" />
  <sodipodi:namedview
     id="base"
     pagecolor="#ffffff"
     bordercolor="#666666"
     borderopacity="1.0"
     inkscape:pageopacity="0.0"
     inkscape:pageshadow="2"
     inkscape:zoom="5.5"
     inkscape:cx="38.991282"
     inkscape:cy="32"
     inkscape:current-layer="layer1"
     showgrid="true"
     inkscape:document-units="px"
     inkscape:grid-bbox="true"
     inkscape:window-width="1280"
     inkscape:window-height="947"
     inkscape:window-x="0"
     inkscape:window-y="24"
     inkscape:window-maximized="1" />
  <metadata
     id="metadata2990">
    <rdf:RDF>
      <cc:Work
         rdf:about="">
        <dc:format>image/svg+xml</dc:format>
        <dc:type
           rdf:resource="http://purl.org/dc/dcmitype/StillImage" />
        <dc:title></dc:title>
      </cc:Work>
    </rdf:RDF>
  </metadata>
  <g
     id="layer1"
     inkscape:label="Layer 1"
     inkscape:groupmode="layer">
    <g
       transform="translate(1.6363636,-12.545455)"
       style="font-size:40px;font-style:normal;font-weight:normal;line-height:125%;letter-spacing:0px;word-spacing:0px;fill:#000000;fill-opacity:1;stroke:none;font-family:Sans"
       id="flowRoot3785">
      <path
         d="m 45.549479,63.419934 c -0.02825,0.394968 -0.126993,0.775827 -0.296224,1.142578 -0.141099,0.366755 -0.409111,0.691191 -0.804036,0.973308 -0.366793,0.282118 -0.888711,0.507813 -1.565755,0.677083 -0.677121,0.169271 -1.551686,0.253906 -2.623698,0.253906 -1.438836,-0.338541 -2.496778,-1.128471 -3.173829,-2.369791 -0.648902,-1.241316 -0.973338,-2.708329 -0.973307,-4.401042 l 0,-15.31901 -12.822265,0 c -0.761737,2.2e-5 -1.678619,-0.26799 -2.750651,-0.804037 -1.043852,-0.564213 -2.073582,-1.283613 -3.089193,-2.158203 -1.015637,-0.87454 -1.918413,-1.847846 -2.708333,-2.919922 -0.78994,-1.07202 -1.283646,-2.144067 -1.48112,-3.216146 l -0.211589,-1.819661 c -8e-6,-1.692674 0.423169,-3.385381 1.269531,-5.078125 0.846345,-1.692669 1.932498,-3.216105 3.258464,-4.570313 1.325941,-1.354122 2.792953,-2.454382 4.401042,-3.300781 1.608054,-0.846307 3.173808,-1.269484 4.697265,-1.269531 1.100238,4.7e-5 2.228709,0.225741 3.385417,0.677083 1.156658,0.423223 2.271023,1.015671 3.343099,1.777344 1.072019,0.761763 2.087643,1.636328 3.046875,2.623698 0.987381,0.987454 1.833734,2.03129 2.539062,3.13151 0.705261,1.100299 1.269496,2.214664 1.692709,3.343099 0.423141,1.128507 0.634729,2.21466 0.634765,3.258464 l 0,24.078776 c 0.535988,8e-6 1.057906,0.05643 1.565756,0.169271 0.535986,0.112855 1.00148,0.324443 1.396484,0.634765 0.394926,0.310337 0.705255,0.74762 0.930989,1.311849 0.253866,0.564242 0.380819,1.297748 0.38086,2.200521 l 0,0.465495 c -4.1e-5,0.225698 -0.01415,0.394968 -0.04232,0.507812 M 36.197266,37.860038 c 0.05639,-0.169242 0.0846,-0.310301 0.08463,-0.423177 l 0,-0.592448 c -3.1e-5,-0.648841 -0.112878,-1.410559 -0.338542,-2.285156 -0.197513,-0.902745 -0.493737,-1.833733 -0.888672,-2.792969 -0.366783,-0.987377 -0.789959,-1.960683 -1.269531,-2.919921 -0.479629,-0.959163 -1.001547,-1.819622 -1.565755,-2.581381 -0.536051,-0.761677 -1.086181,-1.368231 -1.650391,-1.819661 -0.536049,-0.479558 -1.057967,-0.719358 -1.565755,-0.719401 -0.536047,4.3e-5 -1.156707,0.155207 -1.861979,0.465495 -0.677105,0.28216 -1.382399,0.69123 -2.115885,1.227213 -0.705315,0.507853 -1.410609,1.114406 -2.115886,1.819662 -0.6771,0.705333 -1.311865,1.481157 -1.904297,2.327474 -0.564251,0.818178 -1.057957,1.692743 -1.481119,2.623698 -0.39498,0.902811 -0.662992,1.819693 -0.804037,2.750651 -1.4e-5,1.579891 0.634751,2.496773 1.904297,2.750651 l 2.158203,0.16927 13.414714,0 0,0"
         style="font-size:65px;font-variant:normal;font-stretch:normal;font-family:AdorshoLipi;-inkscape-font-specification:AdorshoLipi"
         id="path3794" />
    </g>
  </g>
</svg>
