<?xml version="1.0" encoding="UTF-8" standalone="no"?>
<!-- Created with Inkscape (http://www.inkscape.org/) -->

<svg
   xmlns:dc="http://purl.org/dc/elements/1.1/"
   xmlns:cc="http://creativecommons.org/ns#"
   xmlns:rdf="http://www.w3.org/1999/02/22-rdf-syntax-ns#"
   xmlns:svg="http://www.w3.org/2000/svg"
   xmlns="http://www.w3.org/2000/svg"
   xmlns:sodipodi="http://sodipodi.sourceforge.net/DTD/sodipodi-0.dtd"
   xmlns:inkscape="http://www.inkscape.org/namespaces/inkscape"
   width="64px"
   height="64px"
   id="svg2985"
   version="1.1"
   inkscape:version="0.48.0 r9654"
   sodipodi:docname="Bengali Digit Two.svg">
  <defs
     id="defs2987" />
  <sodipodi:namedview
     id="base"
     pagecolor="#ffffff"
     bordercolor="#666666"
     borderopacity="1.0"
     inkscape:pageopacity="0.0"
     inkscape:pageshadow="2"
     inkscape:zoom="5.5"
     inkscape:cx="39.627645"
     inkscape:cy="32"
     inkscape:current-layer="layer1"
     showgrid="true"
     inkscape:document-units="px"
     inkscape:grid-bbox="true"
     inkscape:window-width="1280"
     inkscape:window-height="947"
     inkscape:window-x="0"
     inkscape:window-y="24"
     inkscape:window-maximized="1" />
  <metadata
     id="metadata2990">
    <rdf:RDF>
      <cc:Work
         rdf:about="">
        <dc:format>image/svg+xml</dc:format>
        <dc:type
           rdf:resource="http://purl.org/dc/dcmitype/StillImage" />
        <dc:title></dc:title>
      </cc:Work>
    </rdf:RDF>
  </metadata>
  <g
     id="layer1"
     inkscape:label="Layer 1"
     inkscape:groupmode="layer">
    <g
       transform="translate(7.8181819,-7.8181818)"
       style="font-size:60px;font-style:normal;font-weight:normal;line-height:125%;letter-spacing:0px;word-spacing:0px;fill:#000000;fill-opacity:1;stroke:none;font-family:Sans"
       id="flowRoot3635">
      <path
         d="M 41.679687,66.285468 C 39.440068,64.150047 37.0833,62.092758 34.609375,60.113593 32.161429,58.16047 29.609349,56.376617 26.953125,54.762031 24.296854,53.121412 21.549461,51.702143 18.710937,50.504218 15.872383,49.28027 12.942699,48.355792 9.921875,47.730781 l -3.90625,-13.59375 c 0.5468717,1.093774 1.4453083,2.070336 2.6953125,2.929687 1.276035,0.859397 2.7083255,1.614605 4.2968755,2.265625 1.58853,0.651062 3.229153,1.184915 4.921874,1.601563 1.718734,0.416685 3.294253,0.729184 4.726563,0.9375 0.833313,1.8e-5 1.718729,-0.130191 2.65625,-0.390625 0.963519,-0.28644 1.848934,-0.664044 2.65625,-1.132813 0.833308,-0.494772 1.523411,-1.067688 2.070312,-1.71875 0.546848,-0.677061 0.833306,-1.406227 0.859375,-2.1875 -0.312527,-1.510392 -0.937526,-2.825494 -1.875,-3.945312 -0.911483,-1.145805 -2.005232,-2.148408 -3.28125,-3.007813 -1.250021,-0.885385 -2.604186,-1.653614 -4.0625,-2.304687 -1.45835,-0.67705 -2.877619,-1.30205 -4.257812,-1.875 -1.015638,-0.416632 -1.861991,-0.846319 -2.539062,-1.289063 -0.677095,-0.468714 -1.223969,-0.963505 -1.640625,-1.484375 -0.390635,-0.546837 -0.677093,-1.119753 -0.859376,-1.71875 -0.156258,-0.62496 -0.234383,-1.315064 -0.234375,-2.070312 -8e-6,-0.468709 0.104158,-0.924438 0.312501,-1.367188 0.208323,-0.468707 0.494781,-0.885373 0.859374,-1.25 0.364573,-0.364539 0.794261,-0.650997 1.289063,-0.859375 0.49478,-0.23433 1.041654,-0.351517 1.640625,-0.351562 1.328111,4.5e-5 2.330714,0.299523 3.007812,0.898437 0.703109,0.57296 1.132796,1.692751 1.289063,3.359375 1.484356,0.572957 3.046855,1.341185 4.6875,2.304688 1.640601,0.937537 3.137996,2.070348 4.492187,3.398437 1.380181,1.328159 2.512992,2.864616 3.398438,4.609375 0.911428,1.718779 1.367156,3.632839 1.367187,5.742188 -3.1e-5,1.692731 -0.273468,3.190125 -0.820312,4.492187 -0.546905,1.276061 -1.315133,2.408872 -2.304688,3.398438 -0.98961,0.963557 -2.161484,1.80991 -3.515625,2.539062 -1.354189,0.703139 -2.825542,1.315117 -4.414062,1.835938 1.354145,0.885428 2.799456,1.87501 4.335937,2.96875 1.562474,1.093758 3.111952,2.23959 4.648438,3.4375 1.562469,1.197921 3.059864,2.421878 4.492187,3.671875 1.432257,1.223959 2.695277,2.421874 3.789063,3.59375 l 0.976562,5.117187 0,0"
         style="font-variant:normal;font-stretch:normal;font-family:AdorshoLipi;-inkscape-font-specification:AdorshoLipi"
         id="path3663" />
    </g>
  </g>
</svg>
