<?xml version="1.0" encoding="UTF-8" standalone="no"?>
<!-- Created with Inkscape (http://www.inkscape.org/) -->

<svg
   xmlns:dc="http://purl.org/dc/elements/1.1/"
   xmlns:cc="http://creativecommons.org/ns#"
   xmlns:rdf="http://www.w3.org/1999/02/22-rdf-syntax-ns#"
   xmlns:svg="http://www.w3.org/2000/svg"
   xmlns="http://www.w3.org/2000/svg"
   xmlns:sodipodi="http://sodipodi.sourceforge.net/DTD/sodipodi-0.dtd"
   xmlns:inkscape="http://www.inkscape.org/namespaces/inkscape"
   width="64px"
   height="64px"
   id="svg2985"
   version="1.1"
   inkscape:version="0.48.0 r9654"
   sodipodi:docname="Bengali Digit Two.svg">
  <defs
     id="defs2987" />
  <sodipodi:namedview
     id="base"
     pagecolor="#ffffff"
     bordercolor="#666666"
     borderopacity="1.0"
     inkscape:pageopacity="0.0"
     inkscape:pageshadow="2"
     inkscape:zoom="5.5"
     inkscape:cx="38.991282"
     inkscape:cy="32"
     inkscape:current-layer="layer1"
     showgrid="true"
     inkscape:document-units="px"
     inkscape:grid-bbox="true"
     inkscape:window-width="1280"
     inkscape:window-height="947"
     inkscape:window-x="0"
     inkscape:window-y="24"
     inkscape:window-maximized="1" />
  <metadata
     id="metadata2990">
    <rdf:RDF>
      <cc:Work
         rdf:about="">
        <dc:format>image/svg+xml</dc:format>
        <dc:type
           rdf:resource="http://purl.org/dc/dcmitype/StillImage" />
        <dc:title></dc:title>
      </cc:Work>
    </rdf:RDF>
  </metadata>
  <g
     id="layer1"
     inkscape:label="Layer 1"
     inkscape:groupmode="layer">
    <g
       transform="translate(6.7272727,-10)"
       style="font-size:40px;font-style:normal;font-weight:normal;line-height:125%;letter-spacing:0px;word-spacing:0px;fill:#000000;fill-opacity:1;stroke:none;font-family:Sans"
       id="flowRoot3665">
      <path
         d="m 44.728516,43.621757 c -4.2e-5,2.341599 -0.395007,4.626753 -1.184896,6.855469 -0.78997,2.200533 -1.918441,4.175358 -3.385417,5.924479 -1.467049,1.720927 -3.244391,3.11741 -5.332031,4.189453 -2.087703,1.043841 -4.429281,1.565759 -7.02474,1.565755 -5.106356,4e-6 -10.184476,-3.371304 -15.234375,-10.113932 C 11.043612,50.011746 9.7599763,48.00871 8.7161458,46.033867 7.7005166,44.03085 6.8400574,42.013708 6.1347656,39.982434 5.4294685,37.951212 4.8511271,35.877646 4.3997396,33.761731 3.9483502,31.617668 3.5251736,29.388937 3.1302083,27.075533 l 3.8085938,1.650391 c 0.1692672,1.382414 0.3949614,2.680155 0.6770833,3.893229 0.2821136,1.184927 0.6347609,2.355716 1.0579427,3.51237 0.4513833,1.1285 0.9591952,2.285183 1.5234379,3.470052 0.59244,1.156709 1.269523,2.412133 2.03125,3.766276 0.648862,1.156705 1.481109,2.355705 2.496744,3.597005 1.043825,1.241337 2.22872,2.39802 3.554688,3.470052 1.325939,1.043851 2.778845,1.90431 4.358724,2.58138 1.57984,0.677095 3.244335,1.015637 4.993489,1.015625 1.551624,1.2e-5 3.089166,-0.33853 4.612631,-1.015625 1.523407,-0.705282 2.877572,-1.63627 4.0625,-2.792968 1.184861,-1.18488 2.144062,-2.524939 2.877604,-4.020183 0.73347,-1.523416 1.100223,-3.103276 1.10026,-4.739583 -3.7e-5,-2.087648 -0.12699,-3.850884 -0.380859,-5.289713 -0.225731,-1.438772 -0.691225,-2.665984 -1.396485,-3.681641 -0.677117,-1.015591 -1.650424,-1.87605 -2.919921,-2.58138 -1.241351,-0.733471 -2.877634,-1.42466 -4.908855,-2.073568 0.535997,0.648908 0.916856,1.340097 1.142579,2.073568 0.225665,0.733541 0.338513,1.467048 0.338541,2.200521 -2.8e-5,0.987445 -0.183405,1.960751 -0.55013,2.919921 -0.366781,0.931019 -0.888699,1.777373 -1.565755,2.539063 -0.677109,0.733534 -1.509357,1.340087 -2.496745,1.819661 -0.959224,0.451415 -2.045378,0.677109 -3.258464,0.677084 -1.015644,2.5e-5 -1.988951,-0.253881 -2.919921,-0.761719 -0.902795,-0.535998 -1.706831,-1.227186 -2.41211,-2.073568 -0.677098,-0.846325 -1.227228,-1.805525 -1.65039,-2.877604 -0.394979,-1.072016 -0.592462,-2.144064 -0.592448,-3.216146 -1.4e-5,-1.438766 0.282104,-2.76472 0.846354,-3.977864 0.564221,-1.24128 1.354151,-2.313328 2.369792,-3.216146 1.015607,-0.902736 2.228713,-1.60803 3.639322,-2.115886 1.410569,-0.507768 2.948111,-0.761674 4.612631,-0.761718 1.466987,4.4e-5 3.046847,0.380903 4.739583,1.142578 1.692677,0.761761 3.300748,1.904338 4.824219,3.427734 1.551613,1.495264 2.919884,3.357241 4.104817,5.585938 1.213069,2.228764 2.059422,4.796036 2.539063,7.701823 l 0.338542,4.697265 0,0"
         style="font-size:65px;font-variant:normal;font-stretch:normal;font-family:AdorshoLipi;-inkscape-font-specification:AdorshoLipi"
         id="path3674" />
    </g>
  </g>
</svg>
