<?xml version="1.0" encoding="UTF-8" standalone="no"?>
<!-- Created with Inkscape (http://www.inkscape.org/) -->
<svg id="svg2985" xmlns:inkscape="http://www.inkscape.org/namespaces/inkscape" xmlns:rdf="http://www.w3.org/1999/02/22-rdf-syntax-ns#" xmlns="http://www.w3.org/2000/svg" sodipodi:docname="dosh1.svg" height="64" width="80" version="1.1" xmlns:cc="http://creativecommons.org/ns#" xmlns:dc="http://purl.org/dc/elements/1.1/" inkscape:version="0.48.4 r9939" xmlns:sodipodi="http://sodipodi.sourceforge.net/DTD/sodipodi-0.dtd">
 <sodipodi:namedview id="base" bordercolor="#666666" inkscape:pageshadow="2" inkscape:window-y="-8" pagecolor="#ffffff" inkscape:window-height="838" inkscape:grid-bbox="true" inkscape:window-maximized="1" inkscape:zoom="5.5" inkscape:window-x="-8" showgrid="true" borderopacity="1.0" inkscape:current-layer="layer1" inkscape:cx="32" inkscape:cy="32" inkscape:window-width="1600" inkscape:pageopacity="0.0" inkscape:document-units="px"/>
 <metadata id="metadata2990">
  <rdf:RDF>
   <cc:Work rdf:about="">
    <dc:format>image/svg+xml</dc:format>
    <dc:type rdf:resource="http://purl.org/dc/dcmitype/StillImage"/>
    <dc:title/>
   </cc:Work>
  </rdf:RDF>
 </metadata>
 <g id="layer1" inkscape:label="Layer 1" inkscape:groupmode="layer">
  <g id="text2993" style="writing-mode:lr-tb;letter-spacing:0px;text-anchor:start;word-spacing:0px;text-align:start;" font-weight="normal" font-size="72px" font-stretch="normal" font-variant="normal" font-style="normal" font-family="SolaimanLipi" line-height="125%" fill="#000">
   <path id="path3016" style="" d="m18.837,55.3-2.1445,0.94922c-0.63283,0.14062-1.2481,0.24609-1.8457,0.31641-0.59767,0.07031-1.166,0.10546-1.7051,0.10547-1.125-0.000004-2.1563-0.16407-3.0938-0.49219l-1.3705-0.808c-0.5391-0.258-1.0254-0.562-1.459-0.914s-0.8496-0.762-1.248-1.231c-0.211-0.421-0.3868-0.873-0.5274-1.353s-0.2461-0.979-0.3164-1.494c-0.0000064-0.70312,0.15234-1.4297,0.45703-2.1797,0.30468-0.74999,0.74413-1.4707,1.3184-2.1621,0.57421-0.6914,1.2598-1.3359,2.0566-1.9336,0.79686-0.59765,1.6992-1.1074,2.707-1.5293l1.4766-0.24609,1.2305-0.07031c0.77342,0.000011,1.582,0.07032,2.4258,0.21094,0.84373,0.14064,1.664,0.34571,2.4609,0.61523,0.79685,0.26954,1.5351,0.59181,2.2148,0.9668,0.67966,0.37501,1.2304,0.82032,1.6523,1.3359l1.8984-2.0039c0.37497-0.67968,0.56247-1.4883,0.5625-2.4258-0.000027-2.3437-0.31643-4.1367-0.94922-5.3789l-1.652-2.074-2.672-3.059-4.465-4.676-6.2223-5.871-2.25-2.355c-0.5391-0.609-0.9551-1.166-1.248-1.67-0.293-0.504-0.4864-0.955-0.5801-1.354l-0.2461-1.793,0.1055-1.406,0.5625-1.4763c0.3515-0.7031,1.125-1.3945,2.3203-2.0742,0.2343-0.1406,0.5507-0.2637,0.9492-0.3692,0.3984-0.1054,0.879-0.205,1.441-0.2988,0.89061,0.0000458,1.7109,0.31059,2.4609,0.93164,0.74998,0.62114,1.3828,1.6114,1.8984,2.9707l0.10547,0.98438c-0.000016,0.5391-0.01759,0.97856-0.05273,1.3184-0.03517,0.33988-0.07619,0.59184-0.12305,0.75586l-0.17578,1.2305,2.3203,2.25,3.0586,3.2695,5.4141,6.4336c1.9687,2.625,3.3515,5.2617,4.1484,7.9102l0.5625,2.4609,0.14062,2.4961c-0.000032,3.0938-0.89066,5.8828-2.6719,8.3672-1.5469,2.0625-3.8321,3.9961-6.8555,5.8008z"/>
   <path id="path3018" style="" d="m74.805,36.21c-0.49223,3.9375-2.5313,7.4883-6.1172,10.652-3.6797,3.1875-7.6289,4.7813-11.848,4.7812-5.1797,0.000001-9.3281-2.2266-12.445-6.6797-2.4609-3.914-3.6914-8.25-3.6914-13.008l0.24609-2.9883c0.63281-3.914,2.6016-7.2656,5.9062-10.055,3.4219-2.8125,7.1367-4.2187,11.145-4.2188,0.86716,0.000038,1.7929,0.08793,2.7773,0.26367,0.98435,0.17582,2.0039,0.45121,3.0586,0.82617,1.8281,0.70316,3.457,1.6524,4.8867,2.8477s2.6367,2.7071,3.6211,4.5352c0.89059,1.6172,1.5527,3.2813,1.9863,4.9922,0.43356,1.711,0.65035,3.4922,0.65039,5.3438v1.3359zm-5.0977-6.9961c-0.000033-1.5-0.17581-2.7949-0.52734-3.8848-0.3516-1.0898-0.9141-2.0449-1.6875-2.8652-1.0313-1.2187-2.6133-2.0742-4.7461-2.5664l-1.7227-0.17578c-1.1719,0.000033-2.3438,0.20511-3.5156,0.61523-1.1719,0.41019-2.3672,1.002-3.5859,1.7754-2.5547,1.5938-4.3945,3.4922-5.5195,5.6953l-2.0039,4.4297c-0.32814,1.0781-0.55079,2.0274-0.66797,2.8477-0.1172,0.82033-0.17579,1.5117-0.17578,2.0742-0.000009,0.75002,0.05273,1.4531,0.1582,2.1094,0.10546,0.65626,0.30468,1.2949,0.59766,1.916,0.29296,0.6211,0.69726,1.2422,1.2129,1.8633,0.51561,0.6211,1.1719,1.2598,1.9688,1.916,0.70311,0.42188,1.4297,0.75001,2.1797,0.98438,0.74998,0.23438,1.5351,0.35157,2.3555,0.35156,3.2578,0.000007,6.5039-1.4062,9.7383-4.2188,1.664-1.5,2.9824-3.0762,3.9551-4.7285,0.97262-1.6523,1.5761-3.4512,1.8105-5.3965z"/>
  </g>
 </g>
</svg>
