<?xml version="1.0" encoding="UTF-8" standalone="no"?>
<!-- Created with Inkscape (http://www.inkscape.org/) -->

<svg
   xmlns:dc="http://purl.org/dc/elements/1.1/"
   xmlns:cc="http://creativecommons.org/ns#"
   xmlns:rdf="http://www.w3.org/1999/02/22-rdf-syntax-ns#"
   xmlns:svg="http://www.w3.org/2000/svg"
   xmlns="http://www.w3.org/2000/svg"
   xmlns:sodipodi="http://sodipodi.sourceforge.net/DTD/sodipodi-0.dtd"
   xmlns:inkscape="http://www.inkscape.org/namespaces/inkscape"
   width="64px"
   height="64px"
   id="svg2985"
   version="1.1"
   inkscape:version="0.48.0 r9654"
   sodipodi:docname="Bengali Digit Seven.svg">
  <defs
     id="defs2987" />
  <sodipodi:namedview
     id="base"
     pagecolor="#ffffff"
     bordercolor="#666666"
     borderopacity="1.0"
     inkscape:pageopacity="0.0"
     inkscape:pageshadow="2"
     inkscape:zoom="5.5"
     inkscape:cx="39.627645"
     inkscape:cy="32"
     inkscape:current-layer="layer1"
     showgrid="true"
     inkscape:document-units="px"
     inkscape:grid-bbox="true"
     inkscape:window-width="1280"
     inkscape:window-height="947"
     inkscape:window-x="0"
     inkscape:window-y="24"
     inkscape:window-maximized="1" />
  <metadata
     id="metadata2990">
    <rdf:RDF>
      <cc:Work
         rdf:about="">
        <dc:format>image/svg+xml</dc:format>
        <dc:type
           rdf:resource="http://purl.org/dc/dcmitype/StillImage" />
        <dc:title></dc:title>
      </cc:Work>
    </rdf:RDF>
  </metadata>
  <g
     id="layer1"
     inkscape:label="Layer 1"
     inkscape:groupmode="layer">
    <g
       transform="translate(6.7272727,-7.0909091)"
       style="font-size:40px;font-style:normal;font-weight:normal;line-height:125%;letter-spacing:0px;word-spacing:0px;fill:#000000;fill-opacity:1;stroke:none;font-family:Sans"
       id="flowRoot3815">
      <path
         d="m 45.785807,32.843762 c -0.592489,1.918432 -2.214666,3.314915 -4.866536,4.189454 l -4.570313,0.253906 c -2.398033,2.6e-5 -3.639351,0.394991 -3.723958,1.184896 l 0.253906,0.888671 c 0.874537,1.777366 1.311819,3.512391 1.311849,5.205079 -3e-5,1.692725 -0.380889,3.385431 -1.142578,5.078125 -0.761747,1.664508 -1.8479,3.230262 -3.258463,4.697265 -1.410615,1.467021 -3.117427,2.792975 -5.120443,3.977865 -2.003057,1.156688 -4.231787,2.087676 -6.686198,2.792969 l -0.465495,0.08463 c -0.564249,2e-6 -1.241331,-0.253904 -2.03125,-0.761719 -0.761729,-0.536021 -1.523447,-1.213103 -2.285156,-2.03125 C 12.439445,57.585521 11.720045,56.69685 11.042969,55.737643 10.394091,54.77845 9.9003849,53.847461 9.561849,52.944674 l 0,-28.606771 C 8.1230429,24.337942 6.9381483,23.999401 6.0071615,23.322278 5.076171,22.645235 4.6106767,21.516764 4.6106771,19.936861 c -4e-7,-1.438757 0.3667527,-2.539016 1.1002604,-3.300781 0.7335047,-0.789883 1.6362816,-1.184848 2.7083333,-1.184896 0.6206549,4.8e-5 1.241314,0.127001 1.8619792,0.38086 0.648865,0.225741 1.227206,0.550177 1.735026,0.973307 0.536016,0.423223 0.973299,0.916929 1.311849,1.48112 0.366744,0.536068 0.578332,1.11441 0.634766,1.735026 l 0.465494,4.527995 0,10.452474 c 0.197473,-0.310302 0.564226,-0.705267 1.100261,-1.184896 0.564224,-0.479571 1.227201,-0.945066 1.988932,-1.396485 0.761705,-0.479569 1.608058,-0.902746 2.539063,-1.269531 0.930972,-0.394933 1.876067,-0.662945 2.835286,-0.804036 0.592429,3.2e-5 1.156664,0.07056 1.692708,0.211588 0.536004,0.11288 1.100239,0.380892 1.692709,0.804037 0.620637,0.394996 1.311825,0.959232 2.073567,1.692708 0.761694,0.733536 1.664471,1.706843 2.708334,2.919922 0.11282,-0.394938 0.253879,-0.747585 0.423177,-1.057943 0.169243,-0.310301 0.493679,-0.832219 0.973307,-1.565755 0.564207,-0.846324 1.354137,-1.438771 2.369792,-1.777344 1.043805,-0.366721 2.129958,-0.620627 3.258463,-0.761719 1.128438,-0.141026 2.200485,-0.253873 3.216146,-0.338541 1.015587,-0.0846 1.791411,-0.296191 2.327474,-0.634766 l 1.48112,-2.623698 0.677083,0.253906 c 0.141018,0.395001 0.225653,0.804072 0.253907,1.227214 0.05638,0.423211 0.08459,0.832282 0.08464,1.227214 -4.2e-5,0.507845 -0.04236,1.001551 -0.126953,1.481119 -0.05647,0.479632 -0.126995,0.959233 -0.211589,1.438802 M 27.673828,40.46095 c -2.3e-5,-0.479578 -0.141082,-0.959178 -0.423177,-1.438802 -0.282141,-0.507788 -0.677106,-0.959176 -1.184896,-1.354167 -0.507834,-0.394939 -1.128493,-0.719375 -1.861979,-0.973307 -0.733526,-0.25388 -1.537562,-0.380833 -2.412109,-0.38086 -0.620677,2.7e-5 -1.199018,0.02824 -1.735026,0.08464 -0.53604,0.05645 -1.100276,0.169297 -1.692709,0.338542 -0.564249,0.169297 -1.170803,0.423203 -1.819661,0.761718 -0.620672,0.338567 -1.325966,0.789956 -2.115886,1.354167 l 0,14.726562 1.015625,2.41211 c 0.423166,7e-6 1.015613,-0.155158 1.777344,-0.465495 0.789917,-0.310322 1.622164,-0.76171 2.496745,-1.354167 0.902761,-0.592438 1.805538,-1.311838 2.708333,-2.158203 0.930971,-0.846342 1.763218,-1.791436 2.496745,-2.835286 0.761697,-1.072034 1.382356,-2.242822 1.861979,-3.51237 0.479578,-1.269512 0.719378,-2.623678 0.719401,-4.0625 l 0.169271,-1.142578 0,0"
         style="font-size:65px;font-variant:normal;font-stretch:normal;font-family:AdorshoLipi;-inkscape-font-specification:AdorshoLipi"
         id="path3824" />
    </g>
  </g>
</svg>
