<?xml version="1.0" encoding="UTF-8" standalone="no"?>
<!-- Created with Inkscape (http://www.inkscape.org/) -->

<svg
   xmlns:dc="http://purl.org/dc/elements/1.1/"
   xmlns:cc="http://creativecommons.org/ns#"
   xmlns:rdf="http://www.w3.org/1999/02/22-rdf-syntax-ns#"
   xmlns:svg="http://www.w3.org/2000/svg"
   xmlns="http://www.w3.org/2000/svg"
   xmlns:sodipodi="http://sodipodi.sourceforge.net/DTD/sodipodi-0.dtd"
   xmlns:inkscape="http://www.inkscape.org/namespaces/inkscape"
   width="64px"
   height="64px"
   id="svg2985"
   version="1.1"
   inkscape:version="0.48.0 r9654"
   sodipodi:docname="Bengali Digit Four.svg">
  <defs
     id="defs2987" />
  <sodipodi:namedview
     id="base"
     pagecolor="#ffffff"
     bordercolor="#666666"
     borderopacity="1.0"
     inkscape:pageopacity="0.0"
     inkscape:pageshadow="2"
     inkscape:zoom="5.5"
     inkscape:cx="38.991282"
     inkscape:cy="32"
     inkscape:current-layer="layer1"
     showgrid="true"
     inkscape:document-units="px"
     inkscape:grid-bbox="true"
     inkscape:window-width="1280"
     inkscape:window-height="947"
     inkscape:window-x="0"
     inkscape:window-y="24"
     inkscape:window-maximized="1" />
  <metadata
     id="metadata2990">
    <rdf:RDF>
      <cc:Work
         rdf:about="">
        <dc:format>image/svg+xml</dc:format>
        <dc:type
           rdf:resource="http://purl.org/dc/dcmitype/StillImage" />
        <dc:title></dc:title>
      </cc:Work>
    </rdf:RDF>
  </metadata>
  <g
     id="layer1"
     inkscape:label="Layer 1"
     inkscape:groupmode="layer">
    <g
       transform="translate(6.3636364,-6.5454545)"
       style="font-size:40px;font-style:normal;font-weight:normal;line-height:125%;letter-spacing:0px;word-spacing:0px;fill:#000000;fill-opacity:1;stroke:none;font-family:Sans"
       id="flowRoot3725">
      <path
         d="m 44.48112,30.752617 c -1.974867,0.366784 -4.020221,1.114396 -6.136068,2.242838 -2.087707,1.100289 -3.992002,2.454454 -5.712891,4.0625 -1.720948,1.608097 -3.145643,3.385439 -4.274088,5.332031 -1.100285,1.918421 -1.650415,3.893245 -1.650391,5.92448 -2.4e-5,1.410602 0.2962,2.750662 0.888672,4.020182 0.592422,1.241328 1.368246,2.369799 2.327474,3.385416 0.987385,0.987419 2.10175,1.847878 3.343099,2.581381 1.269499,0.705298 2.581347,1.227216 3.935547,1.565755 -1.269565,0.564238 -2.595518,0.987414 -3.977865,1.269531 -1.382408,0.253907 -2.792996,0.38086 -4.23177,0.38086 -3.38544,0 -6.531054,-0.4796 -9.436849,-1.438803 -2.905831,-0.98741 -5.430785,-2.369787 -7.57487,-4.147135 C 9.8652269,54.154317 8.200732,52.010222 6.9876302,49.499361 5.7745192,46.988526 5.167966,44.19556 5.1679687,41.120455 c -2.7e-6,-1.890168 0.282115,-3.780357 0.8463542,-5.670573 0.5924437,-1.918374 1.3964794,-3.766245 2.4121094,-5.54362 1.0156179,-1.777309 2.2146187,-3.470016 3.5970057,-5.078125 1.410579,-1.608033 2.919909,-3.06094 4.527994,-4.358724 1.608057,-1.325911 3.286658,-2.468488 5.035808,-3.427734 1.777322,-0.959155 3.554664,-1.678555 5.332031,-2.158203 l 7.109375,1.650391 c -0.648903,0.141104 -1.213138,0.409116 -1.692709,0.804036 -0.47963,0.366798 -0.8887,0.804081 -1.227213,1.311849 -0.33857,0.507856 -0.592476,1.057985 -0.761719,1.650391 -0.169298,0.592489 -0.253934,1.184936 -0.253906,1.777343 -2.8e-5,1.128512 0.310302,2.115924 0.93099,2.96224 0.648842,0.84639 1.678572,1.269567 3.089192,1.269531 0.507781,3.6e-5 0.987381,-0.05639 1.438802,-0.169271 l 3.554688,2.158203 c 0.987375,0.620694 1.93247,1.128506 2.835286,1.523438 0.902738,0.394997 1.749091,0.705327 2.539063,0.93099 M 32.462891,30.456393 c -1.10029,-0.112816 -2.101808,-0.423145 -3.004558,-0.93099 -0.902804,-0.507779 -1.692733,-1.142544 -2.369791,-1.904297 -0.648896,-0.761683 -1.170814,-1.622142 -1.565756,-2.58138 -0.394988,-0.959163 -0.634788,-1.946575 -0.719401,-2.96224 -1.974846,0.902817 -3.822718,2.144136 -5.543619,3.723959 -1.720936,1.579896 -3.230266,3.357238 -4.527995,5.332031 -1.269543,1.974855 -2.271061,4.090739 -3.004557,6.347656 -0.733516,2.228755 -1.100269,4.457486 -1.100261,6.686198 -8e-6,1.213125 0.253898,2.398019 0.761719,3.554688 0.507803,1.156697 1.17078,2.24285 1.988932,3.258463 0.846342,1.015635 1.805543,1.96073 2.877604,2.835287 1.100246,0.874573 2.228717,1.622185 3.385417,2.242838 1.184877,0.620665 2.355666,1.114372 3.51237,1.48112 1.156662,0.366758 2.228709,0.56424 3.216146,0.592448 -0.761742,-0.70529 -1.452931,-1.509326 -2.073568,-2.41211 -0.592469,-0.90277 -1.114387,-1.833759 -1.565755,-2.792968 -0.423197,-0.987403 -0.761739,-1.974815 -1.015625,-2.96224 -0.225714,-0.9874 -0.338561,-1.932494 -0.338542,-2.835286 -1.9e-5,-1.805539 0.253887,-3.568775 0.761719,-5.289714 0.507792,-1.720898 1.241298,-3.300757 2.200521,-4.739583 0.959178,-1.466987 2.115861,-2.764729 3.470052,-3.893229 1.382351,-1.156654 2.933999,-2.073537 4.654948,-2.750651"
         style="font-size:65px;font-variant:normal;font-stretch:normal;font-family:AdorshoLipi;-inkscape-font-specification:AdorshoLipi"
         id="path3734" />
    </g>
  </g>
</svg>
