<?xml version="1.0" encoding="UTF-8" standalone="no"?>
<!-- Created with Inkscape (http://www.inkscape.org/) -->

<svg
   xmlns:dc="http://purl.org/dc/elements/1.1/"
   xmlns:cc="http://creativecommons.org/ns#"
   xmlns:rdf="http://www.w3.org/1999/02/22-rdf-syntax-ns#"
   xmlns:svg="http://www.w3.org/2000/svg"
   xmlns="http://www.w3.org/2000/svg"
   xmlns:sodipodi="http://sodipodi.sourceforge.net/DTD/sodipodi-0.dtd"
   xmlns:inkscape="http://www.inkscape.org/namespaces/inkscape"
   width="64px"
   height="64px"
   id="svg2985"
   version="1.1"
   inkscape:version="0.48.0 r9654"
   sodipodi:docname="Bengali Digit Nine.svg">
  <defs
     id="defs2987" />
  <sodipodi:namedview
     id="base"
     pagecolor="#ffffff"
     bordercolor="#666666"
     borderopacity="1.0"
     inkscape:pageopacity="0.0"
     inkscape:pageshadow="2"
     inkscape:zoom="5.5"
     inkscape:cx="39.627645"
     inkscape:cy="32"
     inkscape:current-layer="layer1"
     showgrid="true"
     inkscape:document-units="px"
     inkscape:grid-bbox="true"
     inkscape:window-width="1280"
     inkscape:window-height="947"
     inkscape:window-x="0"
     inkscape:window-y="24"
     inkscape:window-maximized="1" />
  <metadata
     id="metadata2990">
    <rdf:RDF>
      <cc:Work
         rdf:about="">
        <dc:format>image/svg+xml</dc:format>
        <dc:type
           rdf:resource="http://purl.org/dc/dcmitype/StillImage" />
        <dc:title></dc:title>
      </cc:Work>
    </rdf:RDF>
  </metadata>
  <g
     id="layer1"
     inkscape:label="Layer 1"
     inkscape:groupmode="layer">
    <g
       transform="translate(5.4545455,-12.545455)"
       style="font-size:40px;font-style:normal;font-variant:normal;font-weight:normal;font-stretch:normal;line-height:125%;letter-spacing:0px;word-spacing:0px;fill:#000000;fill-opacity:1;stroke:none;font-family:AdorshoLipi;-inkscape-font-specification:AdorshoLipi"
       id="flowRoot3875">
      <path
         d="m 26.554687,28.713554 c 2.256921,3.8e-5 4.38691,0.451427 6.389974,1.354167 2.03122,0.902813 3.794456,2.11592 5.289714,3.639323 1.523402,1.523469 2.722403,3.286705 3.597005,5.289713 0.90274,1.974852 1.354128,4.062524 1.354167,6.263021 -3.9e-5,2.115905 -0.493745,4.189471 -1.48112,6.220703 -0.987449,2.003052 -2.341614,3.7945 -4.0625,5.374349 -1.692739,1.551658 -3.695776,2.807082 -6.009115,3.766276 -2.313392,0.959207 -4.781923,1.438807 -7.405598,1.438802 -2.285174,5e-6 -4.372845,-0.507807 -6.263021,-1.523437 -1.861991,-1.015618 -3.470062,-2.369783 -4.824219,-4.0625 C 11.7858,54.781274 10.727859,52.820556 9.9661458,50.591809 9.2326344,48.363095 8.8658813,46.035623 8.8658854,43.609387 c -4.1e-6,-2.031224 0.5078079,-3.949625 1.5234376,-5.755208 1.015618,-1.805525 2.355678,-3.385384 4.020182,-4.739583 1.664485,-1.354132 3.554674,-2.426179 5.670573,-3.216146 2.115868,-0.789893 4.274069,-1.184858 6.474609,-1.184896 m 2.708334,4.570313 c -2.031273,3.3e-5 -3.977885,0.451422 -5.839844,1.354166 -1.861996,0.902809 -3.512385,2.10181 -4.951172,3.597005 -1.438814,1.467041 -2.595497,3.145642 -3.470052,5.035808 -0.846363,1.862001 -1.26954,3.766296 -1.269531,5.71289 -9e-6,0.81816 0.155156,1.706831 0.465495,2.666016 0.31032,0.959216 0.818132,1.847887 1.523437,2.666016 0.705284,0.818154 1.60806,1.509342 2.708333,2.073567 1.128458,0.564246 2.482623,0.846364 4.0625,0.846354 1.100242,10e-6 2.242819,-0.169261 3.427735,-0.507812 1.184873,-0.366743 2.341556,-0.874555 3.470052,-1.523438 1.128446,-0.677071 2.200494,-1.481106 3.216146,-2.412109 1.015596,-0.930975 1.904267,-1.960704 2.666015,-3.089193 0.7899,-1.156665 1.410559,-2.397984 1.86198,-3.723958 0.451356,-1.325933 0.67705,-2.722416 0.677083,-4.189453 -3.3e-5,-1.213081 -0.18341,-2.341553 -0.55013,-3.385417 -0.338574,-1.043807 -0.860492,-1.946584 -1.565756,-2.708333 -0.705325,-0.761687 -1.593996,-1.354134 -2.666015,-1.777344 -1.072076,-0.423144 -2.3275,-0.634732 -3.766276,-0.634765"
         style="font-size:65px;font-family:AdorshoLipi;-inkscape-font-specification:AdorshoLipi"
         id="path3884" />
    </g>
  </g>
</svg>
