<?xml version="1.0" encoding="UTF-8" standalone="no"?>
<!-- Created with Inkscape (http://www.inkscape.org/) -->

<svg
   xmlns:dc="http://purl.org/dc/elements/1.1/"
   xmlns:cc="http://creativecommons.org/ns#"
   xmlns:rdf="http://www.w3.org/1999/02/22-rdf-syntax-ns#"
   xmlns:svg="http://www.w3.org/2000/svg"
   xmlns="http://www.w3.org/2000/svg"
   xmlns:sodipodi="http://sodipodi.sourceforge.net/DTD/sodipodi-0.dtd"
   xmlns:inkscape="http://www.inkscape.org/namespaces/inkscape"
   width="64px"
   height="64px"
   id="svg2985"
   version="1.1"
   inkscape:version="0.48.0 r9654"
   sodipodi:docname="Bengali Digit Three.svg">
  <defs
     id="defs2987" />
  <sodipodi:namedview
     id="base"
     pagecolor="#ffffff"
     bordercolor="#666666"
     borderopacity="1.0"
     inkscape:pageopacity="0.0"
     inkscape:pageshadow="2"
     inkscape:zoom="5.5"
     inkscape:cx="39.627645"
     inkscape:cy="32"
     inkscape:current-layer="layer1"
     showgrid="true"
     inkscape:document-units="px"
     inkscape:grid-bbox="true"
     inkscape:window-width="1280"
     inkscape:window-height="947"
     inkscape:window-x="0"
     inkscape:window-y="24"
     inkscape:window-maximized="1" />
  <metadata
     id="metadata2990">
    <rdf:RDF>
      <cc:Work
         rdf:about="">
        <dc:format>image/svg+xml</dc:format>
        <dc:type
           rdf:resource="http://purl.org/dc/dcmitype/StillImage" />
        <dc:title></dc:title>
      </cc:Work>
    </rdf:RDF>
  </metadata>
  <g
     id="layer1"
     inkscape:label="Layer 1"
     inkscape:groupmode="layer">
    <g
       transform="translate(6,-7.4545455)"
       style="font-size:40px;font-style:normal;font-weight:normal;line-height:125%;letter-spacing:0px;word-spacing:0px;fill:#000000;fill-opacity:1;stroke:none;font-family:Sans"
       id="flowRoot3695">
      <path
         d="m 40.70638,50.235689 c -3.5e-5,1.80557 -0.465529,3.498277 -1.396484,5.078125 -0.902811,1.551659 -2.172341,2.91993 -3.808594,4.104818 -1.608101,1.15669 -3.526502,2.073572 -5.755208,2.750651 -2.200543,0.648875 -4.584438,0.97331 -7.151693,0.973308 -1.608088,2e-6 -3.230265,-0.324433 -4.866536,-0.973308 -1.608084,-0.677079 -3.06099,-1.56575 -4.358724,-2.666015 -1.29775,-1.128465 -2.355692,-2.412101 -3.173828,-3.850912 -0.8181466,-1.467002 -1.2413233,-3.004544 -1.2695317,-4.61263 0.1974791,-1.35415 0.5783381,-2.609575 1.1425777,-3.766276 0.592443,-1.184876 1.325949,-2.228712 2.200521,-3.131511 0.874559,-0.930966 1.890183,-1.70679 3.046875,-2.327473 1.156673,-0.620635 2.426203,-1.043812 3.808594,-1.269532 -1.241332,-0.310304 -2.398015,-0.775798 -3.470052,-1.396484 -1.072058,-0.620632 -2.003046,-1.38235 -2.792969,-2.285156 -0.789937,-0.93096 -1.410596,-1.988902 -1.861979,-3.173828 -0.451394,-1.184863 -0.677088,-2.482605 -0.677083,-3.89323 -5e-6,-1.890153 0.423172,-3.653389 1.269531,-5.289713 0.846347,-1.636242 1.960712,-3.060937 3.343099,-4.274089 1.382368,-1.241272 2.962227,-2.214579 4.739583,-2.919922 1.777328,-0.705245 3.596988,-1.057893 5.458985,-1.057942 1.777322,4.9e-5 3.49824,0.268061 5.16276,0.804036 1.66447,0.536073 3.145588,1.311897 4.443359,2.327474 1.325925,0.987459 2.383866,2.172353 3.173828,3.554688 0.789898,1.38242 1.184863,2.919962 1.184896,4.61263 -3.3e-5,1.015662 -0.225727,2.059498 -0.677083,3.13151 -0.451421,1.043871 -1.043869,2.031283 -1.777344,2.96224 -0.733537,0.931021 -1.551679,1.763268 -2.454427,2.496745 -0.902805,0.705324 -1.791476,1.213136 -2.666016,1.523437 1.35414,0.394993 2.595458,0.973335 3.723959,1.735026 1.128441,0.761745 2.087642,1.692733 2.877604,2.792969 0.818109,1.072071 1.452874,2.285178 1.904297,3.639323 0.451354,1.354185 0.677048,2.821198 0.677083,4.401041 M 25.979818,35.593762 c 1.579839,-0.874534 2.877581,-1.650358 3.893229,-2.327474 1.043811,-0.67705 1.861953,-1.32592 2.454427,-1.946614 0.620632,-0.620625 1.043809,-1.227178 1.269531,-1.819662 0.253878,-0.620622 0.380831,-1.297705 0.38086,-2.03125 -2.9e-5,-1.043797 -0.253935,-2.017103 -0.761719,-2.919921 -0.479628,-0.930948 -1.142605,-1.734983 -1.988932,-2.41211 -0.818168,-0.677039 -1.777368,-1.213062 -2.877605,-1.608073 -1.100282,-0.394919 -2.256965,-0.592402 -3.470052,-0.592448 -0.789949,4.6e-5 -1.67862,0.141105 -2.666015,0.423177 -0.987429,0.253952 -1.918418,0.648917 -2.792969,1.184896 -0.846367,0.536068 -1.565768,1.213151 -2.158203,2.03125 -0.592459,0.818184 -0.888683,1.763279 -0.888672,2.835287 -1.1e-5,0.987451 0.239789,1.974864 0.719401,2.962239 0.5078,0.987449 1.198989,1.904332 2.073568,2.750651 0.874551,0.818176 1.890175,1.537576 3.046875,2.158203 1.156666,0.620691 2.41209,1.057974 3.766276,1.311849 m 8.590494,16.376954 c -2.8e-5,-1.043822 -0.409099,-2.129976 -1.227213,-3.258464 -0.789958,-1.156666 -1.749158,-2.214607 -2.877604,-3.173828 -1.128496,-0.95918 -2.285179,-1.74911 -3.470052,-2.369792 -1.184916,-0.648848 -2.158223,-0.973283 -2.919922,-0.973307 -1.269549,0.818165 -2.412126,1.565777 -3.427735,2.242838 -1.015639,0.677105 -1.876098,1.382399 -2.58138,2.115886 -0.677095,0.705314 -1.199013,1.509349 -1.565755,2.412109 -0.366764,0.902794 -0.55014,1.988947 -0.55013,3.258464 -10e-6,0.761731 0.23979,1.523449 0.719401,2.285156 0.479589,0.761729 1.114354,1.438812 1.904297,2.03125 0.789917,0.592457 1.692693,1.086163 2.708333,1.48112 1.015608,0.366761 2.059444,0.550137 3.13151,0.55013 1.015606,7e-6 1.988912,-0.07052 2.919922,-0.211589 0.959179,-0.141051 1.861956,-0.437275 2.708334,-0.888671 0.87454,-0.479592 1.692682,-1.156675 2.454427,-2.03125 0.761691,-0.874555 1.452879,-2.031238 2.073567,-3.470052"
         style="font-size:65px;font-variant:normal;font-stretch:normal;font-family:AdorshoLipi;-inkscape-font-specification:AdorshoLipi"
         id="path3704" />
    </g>
  </g>
</svg>
