<?xml version="1.0" encoding="UTF-8" standalone="no"?>
<!-- Created with Inkscape (http://www.inkscape.org/) -->

<svg
   xmlns:dc="http://purl.org/dc/elements/1.1/"
   xmlns:cc="http://creativecommons.org/ns#"
   xmlns:rdf="http://www.w3.org/1999/02/22-rdf-syntax-ns#"
   xmlns:svg="http://www.w3.org/2000/svg"
   xmlns="http://www.w3.org/2000/svg"
   xmlns:sodipodi="http://sodipodi.sourceforge.net/DTD/sodipodi-0.dtd"
   xmlns:inkscape="http://www.inkscape.org/namespaces/inkscape"
   width="64px"
   height="64px"
   id="svg2985"
   version="1.1"
   inkscape:version="0.48.0 r9654"
   sodipodi:docname="Bengali Digit Eight.svg">
  <defs
     id="defs2987" />
  <sodipodi:namedview
     id="base"
     pagecolor="#ffffff"
     bordercolor="#666666"
     borderopacity="1.0"
     inkscape:pageopacity="0.0"
     inkscape:pageshadow="2"
     inkscape:zoom="5.5"
     inkscape:cx="38.991282"
     inkscape:cy="32"
     inkscape:current-layer="layer1"
     showgrid="true"
     inkscape:document-units="px"
     inkscape:grid-bbox="true"
     inkscape:window-width="1280"
     inkscape:window-height="947"
     inkscape:window-x="0"
     inkscape:window-y="24"
     inkscape:window-maximized="1" />
  <metadata
     id="metadata2990">
    <rdf:RDF>
      <cc:Work
         rdf:about="">
        <dc:format>image/svg+xml</dc:format>
        <dc:type
           rdf:resource="http://purl.org/dc/dcmitype/StillImage" />
        <dc:title></dc:title>
      </cc:Work>
    </rdf:RDF>
  </metadata>
  <g
     id="layer1"
     inkscape:label="Layer 1"
     inkscape:groupmode="layer">
    <g
       transform="translate(7.8181818,-7.0909091)"
       style="font-size:40px;font-style:normal;font-weight:normal;line-height:125%;letter-spacing:0px;word-spacing:0px;fill:#000000;fill-opacity:1;stroke:none;font-family:Sans"
       id="flowRoot3845">
      <path
         d="m 42.128906,46.844413 c -3.9e-5,1.156701 -0.282156,2.327489 -0.846354,3.51237 -0.564273,1.184909 -1.325991,2.341592 -2.285156,3.470052 -0.959236,1.10027 -2.059496,2.144106 -3.300781,3.131511 -1.213139,0.959207 -2.482669,1.805561 -3.808594,2.539062 -1.325982,0.733511 -2.651936,1.311853 -3.977865,1.735026 -1.297766,0.42318 -2.510873,0.634768 -3.639323,0.634766 0.394944,-1.354163 0.71938,-2.764752 0.973308,-4.231771 0.253884,-1.495218 0.380837,-3.004548 0.380859,-4.527995 -2.2e-5,-1.29773 -0.126975,-2.553154 -0.380859,-3.766276 -0.253928,-1.213091 -0.705317,-2.313351 -1.354167,-3.300781 -0.62068,-0.987394 -1.467033,-1.819641 -2.539063,-2.496745 -1.072065,-0.677062 -2.412125,-1.12845 -4.020182,-1.354166 -0.507826,2.2e-5 -1.057956,0.268033 -1.65039,0.804036 -0.59246,0.507833 -1.14259,1.156704 -1.650391,1.946615 -0.507823,0.789949 -0.930999,1.650408 -1.269531,2.58138 -0.310339,0.931005 -0.465504,1.80557 -0.465495,2.623698 -9e-6,1.467026 0.465485,2.510862 1.396484,3.13151 l 1.735026,-0.08463 0.169271,0 c 0.536012,1.1e-5 0.9874,0.126964 1.354167,0.380859 0.366739,0.225705 0.662963,0.536035 0.888672,0.93099 0.225679,0.366763 0.39495,0.789939 0.507812,1.269531 0.112832,0.479609 0.169256,0.945103 0.169271,1.396484 -1.5e-5,1.438808 -0.296239,2.595491 -0.888672,3.470052 -0.592462,0.874569 -1.565768,1.311852 -2.919922,1.311849 -0.902788,3e-6 -1.763247,-0.19748 -2.58138,-0.592448 -0.81815,-0.423173 -1.551657,-0.973303 -2.2005208,-1.65039 C 9.2762527,59.003707 8.726123,58.199671 8.2747396,57.296887 7.8233462,56.365906 7.5130166,55.406705 7.34375,54.419283 L 7.1744792,52.472669 c -3.9e-6,-1.890178 0.3385374,-3.695731 1.015625,-5.416667 0.6770777,-1.720901 1.5657487,-3.244337 2.6660158,-4.570313 1.128463,-1.325931 2.426205,-2.383873 3.893229,-3.173828 1.495213,-0.789904 3.04686,-1.184869 4.654948,-1.184895 1.52342,2.6e-5 2.976326,0.380885 4.358724,1.142578 1.410568,0.733531 2.651886,1.706837 3.723958,2.919922 1.072023,1.213128 1.918377,2.581399 2.539063,4.104817 0.648844,1.495242 0.973279,3.018678 0.973307,4.570313 -2.8e-5,1.269543 -0.19751,2.41212 -0.592448,3.427734 l 4.147135,-2.835286 c 1.636252,-1.297729 2.454394,-3.004542 2.454428,-5.120443 -3.4e-5,-3.498243 -1.876117,-6.277103 -5.628256,-8.336589 L 19.150391,33.091158 C 17.090915,32.273048 15.214832,31.356165 13.522135,30.340507 11.85763,29.296705 10.432936,28.18234 9.2480469,26.997408 8.0631463,25.784339 7.1462635,24.514809 6.4973958,23.188814 5.8485217,21.83469 5.5240863,20.424101 5.5240885,18.957044 c -2.2e-6,-0.761673 0.1410567,-1.42465 0.4231771,-1.988933 0.2821151,-0.564188 0.6488682,-1.043788 1.1002604,-1.438802 0.4513847,-0.394916 0.9450908,-0.69114 1.4811198,-0.888672 0.5642303,-0.197432 1.1284659,-0.296174 1.6927082,-0.296224 0.366746,5e-5 0.775817,0.09879 1.227214,0.296224 0.45138,0.169321 0.874557,0.437333 1.269531,0.804037 0.394955,0.33859 0.719391,0.761767 0.973307,1.269531 0.282108,0.479648 0.423167,1.029778 0.423177,1.650391 l 0,0.253906 c -10e-6,1.241364 -0.409081,2.158247 -1.227213,2.750651 l 2.877604,2.708333 12.652995,4.147136 c 1.861952,0.818177 3.58287,1.80559 5.16276,2.962239 1.608041,1.156716 3.004524,2.48267 4.189453,3.977865 1.213072,1.467041 2.186379,3.089219 2.919922,4.866536 0.733469,1.777367 1.170752,3.681662 1.311849,5.712891 l 0.126953,1.10026 0,0"
         style="font-size:65px;font-variant:normal;font-stretch:normal;font-family:AdorshoLipi;-inkscape-font-specification:AdorshoLipi"
         id="path3854" />
    </g>
  </g>
</svg>
