<?xml version="1.0" encoding="UTF-8" standalone="no"?>
<svg xmlns="http://www.w3.org/2000/svg" width="64" height="64">
  <path d="M25.727865 61.589856c-1.213129.648873-2.496765 1.227215-3.850912 1.735026-1.354184.507813-2.666031.761719-3.935547.761719-.846368 0-1.749144-.155165-2.708333-.465495-.931001-.310329-1.79146-.747612-2.58138-1.311849-.789939-.564234-1.452916-1.227211-1.988933-1.988932-.507819-.789926-.7617248-1.664492-.7617183-2.623698-.0000065-.874559.2256873-1.791442.6770833-2.750651.479593-.987403 1.128464-1.876074 1.946615-2.666016.846344-.789918 1.833756-1.438789 2.962239-1.946614 1.156671-.536011 2.412095-.804023 3.766276-.804037.789914.000014 1.59395.07054 2.41211.211589.846335.141073 1.65037.352661 2.412109.634765.761697.282132 1.466992.620673 2.115885 1.015625.67706.366766 1.255402.789943 1.735026 1.269532.959176-.451378 1.608047-1.156672 1.946615-2.115886.366727-.987399.550103-2.017129.55013-3.089192-.000027-.902761-.09877-1.76322-.296224-2.581381-.169297-.818122-.394991-1.495205-.677083-2.03125-1.354191-1.833744-2.750674-3.498239-4.189453-4.993489-1.438823-1.495199-2.891729-2.933999-4.358724-4.316406-1.438818-1.382347-2.905831-2.77883-4.401042-4.189454-1.467025-1.410554-2.919932-2.948096-4.358724-4.61263-.902785-1.072008-1.509339-1.974785-1.819661-2.708333-.282125-.761676-.4231838-1.438759-.4231773-2.03125-.0000065-.592404.1128403-1.213063.3385413-1.861979.225688-.677037.578335-1.297696 1.057943-1.861979.507804-.5924 1.128463-1.072001 1.861979-1.438803.733497-.366704 1.608062-.55008 2.623698-.55013.620647.00005 1.184882.183426 1.692708.55013.53601.366802.987399.846403 1.354167 1.438803.366738.564283.648856 1.213153.846354 1.946614.225678.70534.338525 1.410634.338542 2.115886-.000017.846396-.141075 1.565797-.423177 2.158203 1.608055 1.749171 3.328973 3.554725 5.16276 5.416666 1.833745 1.833802 3.526451 3.780414 5.078125 5.839844 1.579833 2.031278 2.877575 4.175373 3.893229 6.432292 1.043806 2.256965 1.565724 4.654967 1.565756 7.19401-.000032 2.90583-.775856 5.543631-2.327474 7.913412-1.523466 2.341586-3.935573 4.443363-7.236328 6.305338" style="font-size:65px;font-style:normal;font-variant:normal;font-weight:400;font-stretch:normal;line-height:125%;letter-spacing:0;word-spacing:0;fill:#000;fill-opacity:1;stroke:none;font-family:AdorshoLipi;-inkscape-font-specification:AdorshoLipi" transform="translate(10.181818 -8.3636364)"/>
</svg>